<svg width="112" height="114" viewBox="0 0 112 114" fill="none" xmlns="http://www.w3.org/2000/svg">
<path d="M110.957 104.997C111.482 104.472 111.482 103.621 110.957 103.096L102.403 94.5429C101.878 94.018 101.027 94.018 100.503 94.5429C99.9782 95.0678 99.9782 95.9188 100.503 96.4437L108.106 104.047L100.503 111.65C99.9782 112.175 99.9782 113.026 100.503 113.551C101.027 114.076 101.878 114.076 102.403 113.551L110.957 104.997ZM0.243526 0C0.175435 0.877625 0.120391 1.77648 0.079212 2.69494L2.76469 2.81534C2.80459 1.92553 2.85786 1.05587 2.92365 0.20794L0.243526 0ZM0 8.11353C0.025369 9.86755 0.099436 11.6747 0.226913 13.5258L2.90874 13.3411C2.78459 11.5384 2.71256 9.77986 2.6879 8.07467L0 8.11353ZM0.740161 18.9234C0.952631 20.6771 1.21311 22.4605 1.52521 24.2668L4.17414 23.8091C3.86985 22.048 3.61592 20.3094 3.40882 18.6L0.740161 18.9234ZM2.58054 29.5732C2.97199 31.3108 3.41242 33.0631 3.90485 34.8243L6.49375 34.1005C6.01388 32.3842 5.58461 30.6763 5.203 28.9824L2.58054 29.5732ZM5.49875 40.0031C6.06805 41.6943 6.68741 43.3887 7.35948 45.0813L9.8579 44.0892C9.20386 42.4421 8.60089 40.7925 8.04646 39.1455L5.49875 40.0031ZM9.49355 50.0557C10.2442 51.6805 11.0464 53.2991 11.9025 54.907L14.2753 53.6436C13.4435 52.0814 12.6638 50.5082 11.9339 48.9283L9.49355 50.0557ZM14.5866 59.6149C15.5191 61.145 16.5042 62.661 17.544 64.1588L19.7522 62.6258C18.7434 61.1727 17.7874 59.7015 16.8821 58.216L14.5866 59.6149ZM20.7704 68.518C21.8795 69.9248 23.0415 71.3108 24.2582 72.6723L26.2626 70.8811C25.0833 69.5614 23.9568 68.2177 22.8814 66.8537L20.7704 68.518ZM27.9968 76.603C29.2691 77.86 30.5936 79.0912 31.9718 80.2932L33.7387 78.2673C32.4029 77.1022 31.1192 75.909 29.886 74.6907L27.9968 76.603ZM36.1663 83.7295C37.5807 84.8173 39.0452 85.8756 40.5611 86.9018L42.068 84.6756C40.5971 83.68 39.1766 82.6534 37.8052 81.5986L36.1663 83.7295ZM45.1357 89.8042C46.6661 90.7132 48.2437 91.5909 49.8696 92.4349L51.1081 90.0491C49.5275 89.2285 47.9947 88.3757 46.5085 87.493L45.1357 89.8042ZM54.7435 94.7961C56.3649 95.5277 58.0301 96.2273 59.7402 96.8931L60.7155 94.3881C59.0489 93.7392 57.4272 93.0578 55.8491 92.3458L54.7435 94.7961ZM64.8453 98.7337C66.5217 99.2916 68.2377 99.8181 69.9943 100.312L70.7223 97.7247C69.0058 97.2419 67.33 96.7274 65.6941 96.1831L64.8453 98.7337ZM75.2104 101.654C76.9347 102.058 78.6954 102.431 80.4932 102.773L80.9956 100.132C79.2341 99.7971 77.5101 99.4318 75.8228 99.037L75.2104 101.654ZM85.8417 103.681C87.5812 103.941 89.3534 104.173 91.1587 104.376L91.4587 101.704C89.6856 101.505 87.946 101.277 86.2394 101.022L85.8417 103.681ZM96.5119 104.883C98.2855 105.02 100.089 105.13 101.924 105.213L102.044 102.527C100.238 102.446 98.4637 102.338 96.7198 102.202L96.5119 104.883ZM107.27 105.371C108.175 105.384 109.087 105.391 110.007 105.391V102.703C109.1 102.703 108.201 102.696 107.309 102.683L107.27 105.371Z" fill="black"/>
</svg>
