<svg width="112" height="115" viewBox="0 0 112 115" fill="none" xmlns="http://www.w3.org/2000/svg">
<path d="M111.401 105.256C111.926 104.731 111.926 103.88 111.401 103.355L102.847 94.8018C102.322 94.2769 101.471 94.2769 100.947 94.8018C100.422 95.3267 100.422 96.1777 100.947 96.7026L108.55 104.306L100.947 111.909C100.422 112.434 100.422 113.285 100.947 113.81C101.471 114.335 102.322 114.335 102.847 113.81L111.401 105.256ZM0.687325 0.258945C0.619234 1.13657 0.56419 2.03542 0.523011 2.95388L3.20849 3.07428C3.24839 2.18447 3.30166 1.31481 3.36745 0.466885L0.687325 0.258945ZM0.443799 8.37248C0.469168 10.1265 0.543235 11.9336 0.670712 13.7847L3.35254 13.6C3.22839 11.7973 3.15636 10.0388 3.1317 8.33361L0.443799 8.37248ZM1.18396 19.1823C1.39643 20.936 1.65691 22.7194 1.96901 24.5257L4.61794 24.068C4.31365 22.3069 4.05972 20.5683 3.85262 18.8589L1.18396 19.1823ZM3.02434 29.8321C3.41579 31.5697 3.85622 33.322 4.34865 35.0832L6.93755 34.3594C6.45768 32.6431 6.02841 30.9352 5.6468 29.2413L3.02434 29.8321ZM5.94255 40.262C6.51185 41.9532 7.13121 43.6476 7.80328 45.3402L10.3017 44.3481C9.64766 42.701 9.04469 41.0514 8.49026 39.4044L5.94255 40.262ZM9.93735 50.3146C10.688 51.9394 11.4902 53.558 12.3463 55.1659L14.7191 53.9025C13.8873 52.3403 13.1076 50.7671 12.3777 49.1872L9.93735 50.3146ZM15.0304 59.8738C15.9629 61.4039 16.948 62.9199 17.9878 64.4177L20.196 62.8847C19.1872 61.4316 18.2312 59.9604 17.3259 58.4749L15.0304 59.8738ZM21.2142 68.7769C22.3233 70.1837 23.4853 71.5697 24.702 72.9312L26.7064 71.14C25.5271 69.8203 24.4006 68.4766 23.3252 67.1126L21.2142 68.7769ZM28.4406 76.8619C29.7129 78.1189 31.0374 79.3501 32.4156 80.5521L34.1825 78.5262C32.8467 77.3611 31.563 76.1679 30.3298 74.9496L28.4406 76.8619ZM36.6101 83.9884C38.0245 85.0762 39.489 86.1345 41.0049 87.1607L42.5118 84.9345C41.0409 83.9389 39.6204 82.9123 38.249 81.8575L36.6101 83.9884ZM45.5795 90.0631C47.1099 90.9721 48.6875 91.8498 50.3134 92.6938L51.5519 90.308C49.9713 89.4874 48.4385 88.6346 46.9523 87.7519L45.5795 90.0631ZM55.1873 95.055C56.8087 95.7866 58.4739 96.4862 60.184 97.152L61.1593 94.647C59.4927 93.9981 57.871 93.3167 56.2929 92.6047L55.1873 95.055ZM65.2891 98.9926C66.9655 99.5505 68.6815 100.077 70.4381 100.571L71.1661 97.9836C69.4496 97.5008 67.7738 96.9863 66.1379 96.442L65.2891 98.9926ZM75.6542 101.913C77.3785 102.317 79.1392 102.69 80.937 103.032L81.4394 100.391C79.6779 100.056 77.9539 99.6907 76.2666 99.2959L75.6542 101.913ZM86.2855 103.94C88.025 104.2 89.7972 104.432 91.6025 104.635L91.9025 101.963C90.1294 101.764 88.3898 101.536 86.6832 101.281L86.2855 103.94ZM96.9557 105.142C98.7293 105.279 100.533 105.389 102.368 105.472L102.488 102.786C100.682 102.705 98.9075 102.597 97.1636 102.461L96.9557 105.142ZM107.714 105.63C108.619 105.643 109.531 105.65 110.451 105.65V102.962C109.544 102.962 108.645 102.955 107.753 102.942L107.714 105.63Z" fill="#E6E7EB"/>
</svg>
