<svg width="78" height="69" viewBox="0 0 88 79" fill="none" xmlns="http://www.w3.org/2000/svg">
<path d="M23.6242 0.107666C16.7992 0.107666 10.631 0.886145 6.30714 2.08448C4.14522 2.68452 2.4508 3.39827 1.4231 4.07353C0.393425 4.74705 0.158691 5.24563 0.158691 5.53078C0.158691 5.81593 0.393425 6.3145 1.4231 6.98802C2.4508 7.66328 4.14522 8.37703 6.30714 8.97708C10.631 10.1667 16.7992 10.9539 23.6242 10.9539C30.4492 10.9539 36.6233 10.1667 40.9432 8.97708C43.113 8.37703 44.8094 7.66328 45.8351 6.98802C46.8609 6.3145 47.0976 5.81593 47.0976 5.53078C47.0976 5.24563 46.8609 4.74705 45.8351 4.07353C44.8094 3.39827 43.113 2.68452 40.9432 2.08448C36.6233 0.886145 30.4492 0.107666 23.6242 0.107666ZM69.8017 3.42801C69.3085 3.42801 68.8154 3.42801 68.3223 3.456C64.3377 3.65718 59.9784 4.77854 55.8754 6.15531C53.4098 6.98102 51.0427 7.9012 48.9123 8.78464C48.6164 9.04705 48.2811 9.29197 47.9458 9.51939C46.9398 10.1667 45.7365 10.744 44.336 11.2513V14.3827C46.999 13.0881 51.8514 10.8664 57.1182 9.09953C61.0435 7.78749 65.1662 6.76935 68.5195 6.59965C71.8729 6.42821 74.2202 7.037 75.5023 8.64469C76.6859 10.1317 76.4886 11.1113 75.3643 12.7383C74.2596 14.3652 72.0504 16.272 69.5452 18.2663C67.0598 20.2432 64.318 22.3249 62.1679 24.6341C60.0178 26.9433 58.3806 29.5674 58.5778 32.5414C58.8737 36.8799 62.7991 40.9909 66.4483 44.3323C70.0778 47.6561 73.6482 50.0878 73.6482 50.0878L75.818 47.6036C75.818 47.6036 72.4252 45.2769 68.9929 42.1455C65.5607 38.9966 62.306 34.903 62.1284 32.3489V32.3314C61.9904 30.5296 63.0358 28.6402 64.9097 26.6459C66.7837 24.6341 69.4072 22.6223 71.932 20.593C74.4569 18.5812 76.8831 16.6044 78.4217 14.3652C79.9406 12.126 80.3351 9.25698 78.3823 6.82358C76.4492 4.39017 73.2339 3.48224 69.8017 3.42801ZM23.6242 4.13126C26.1353 4.13126 28.5436 4.27871 30.3193 4.54117C32.0949 4.80363 33.0924 5.1596 33.0924 5.53078C33.0924 5.90195 32.0949 6.25792 30.3193 6.52038C28.5436 6.78284 26.1353 6.93029 23.6242 6.93029C21.1131 6.93029 18.7048 6.78284 16.9291 6.52038C15.1535 6.25792 14.1559 5.90195 14.1559 5.53078C14.1559 5.1596 15.1535 4.80363 16.9291 4.54117C18.7048 4.27871 21.1131 4.13126 23.6242 4.13126ZM6.46297 12.3009V14.1553C17.963 16.6044 29.3446 16.4295 40.7854 15.3624V12.3009C36.1302 13.438 30.1533 14.1028 23.6242 14.1028C17.0753 14.1028 11.1221 13.438 6.46297 12.3009ZM6.46297 17.3916V21.6602C18.8703 22.1675 30.0744 21.0654 40.7854 19.2285V18.5113C29.5221 19.5609 18.101 19.7358 6.46297 17.3916ZM40.7854 22.4124C30.1336 24.2143 18.8703 25.2989 6.46297 24.8266V28.0979C19.0873 28.3603 30.7648 27.6606 40.7854 25.3164V22.4124ZM40.7854 28.5877C30.5281 30.8445 18.8703 31.4917 6.46297 31.2468V31.8066C18.5942 33.2761 30.2914 34.2208 40.7854 33.696V28.5877ZM6.46297 34.973V36.53C16.9767 39.5039 28.7331 39.6439 40.7854 39.4864V36.8449C30.1139 37.3522 18.4561 36.4425 6.46297 34.973ZM6.46297 39.8188V45.3819C16.8583 45.9767 26.7408 44.7696 36.4852 42.6703C26.228 42.7403 15.9904 42.3729 6.46297 39.8188ZM40.7854 44.962C29.7983 47.5336 18.4758 49.2131 6.46297 48.5483V51.3473C17.8249 51.3823 29.1079 51.1724 40.7854 48.8632V44.962ZM84.5169 48.2859C83.59 48.296 82.512 48.5271 81.3817 48.958C80.2514 49.3889 79.1049 50.0059 78.0469 50.7525C78.0338 50.7583 78.0206 50.7642 78.0075 50.77L77.8891 50.875C77.2516 51.3373 76.6596 51.8387 76.1336 52.362L45.7168 78.1305L80.4929 57.855C81.3779 57.4546 82.2556 56.9495 83.077 56.3681C84.7501 55.1856 86.0903 53.7576 86.8038 52.3968C87.5174 51.036 87.5462 49.8534 86.884 49.1081C86.4048 48.5631 85.5828 48.2775 84.5169 48.2859ZM82.5246 50.9275C82.5312 50.9274 82.5378 50.9274 82.5444 50.9275C83.0752 50.9219 83.486 51.0615 83.7279 51.3298C83.8926 51.5146 83.9738 51.7553 83.9667 52.0382C83.9597 52.3211 83.8646 52.6406 83.687 52.9785C83.5093 53.3164 83.2525 53.6661 82.9312 54.0076C82.6099 54.349 82.2305 54.6756 81.8145 54.9686C80.9782 55.5594 80.0438 55.9794 79.2158 56.1368C78.3877 56.2942 77.7334 56.176 77.396 55.8083C77.2285 55.625 77.1447 55.3854 77.1492 55.1032C77.1538 54.821 77.2467 54.5018 77.4226 54.1638C77.5985 53.8257 77.854 53.4756 78.1744 53.1334C78.4948 52.7912 78.8737 52.4636 79.2897 52.1695C79.8175 51.7955 80.3902 51.4859 80.9553 51.2689C81.5204 51.052 82.06 50.9346 82.5246 50.9275ZM40.7854 52.0821C28.9698 54.3213 17.6474 54.5312 6.46495 54.4962C6.46495 54.4962 6.54582 54.6537 7.19676 54.986C7.96803 55.3709 9.31726 55.7908 10.992 56.1232C14.3335 56.7879 18.9887 57.1378 23.6242 57.1378C28.2597 57.1378 32.9149 56.7879 36.2485 56.1232C37.9252 55.7908 39.2863 55.3709 40.0556 54.986C40.7262 54.6362 40.7854 54.4612 40.7854 54.4962V52.0821ZM2.96564 55.0385C2.35414 55.3184 1.83339 55.5808 1.4231 55.8607C0.393425 56.5255 0.158691 57.0328 0.158691 57.3127C0.158691 57.5926 0.393425 58.1 1.4231 58.7647C2.4508 59.447 4.14522 60.1642 6.30714 60.759C10.631 61.9486 16.7992 62.7358 23.6242 62.7358C30.4492 62.7358 36.6233 61.9486 40.9432 60.759C43.113 60.1642 44.8094 59.447 45.8351 58.7647C46.8609 58.1 47.0976 57.5926 47.0976 57.3127C47.0976 57.0328 46.8609 56.5255 45.8351 55.8607C45.4209 55.5808 44.908 55.3009 44.2768 55.0385C44.0401 56.2456 42.9552 57.1378 41.8111 57.7151C40.5093 58.3799 38.9115 58.8347 37.0178 59.2021C33.27 59.9368 28.4569 60.2867 23.6242 60.2867C18.7914 60.2867 13.9784 59.9368 10.2207 59.2021C8.34479 58.8347 6.73321 58.3799 5.43527 57.7151C4.29316 57.1553 3.2122 56.2456 2.96564 55.0385Z" fill="white"/>
</svg>
