<svg width="58" height="57" viewBox="0 0 58 57" fill="none" xmlns="http://www.w3.org/2000/svg">
<path d="M25.0389 56.7898C19.9553 56.1423 14.7219 54.0003 10.9101 51.0026C2.32801 44.2756 -1.56758 33.6478 0.658979 23.0936C1.61373 18.5366 4.10035 13.7416 7.28345 10.2871C9.62828 7.69447 12.456 5.56618 15.6144 4.01684C19.8074 1.92909 23.8152 0.991089 28.5462 0.991089C31.9413 0.991089 34.6702 1.42859 37.7963 2.47684C41.9031 3.86082 45.6341 6.14768 48.705 9.16312C51.7758 12.1786 54.1054 15.843 55.5161 19.8771C57.1869 24.6896 57.4915 29.8118 56.4246 34.8886C55.5714 38.8996 53.3715 43.4111 50.664 46.6731C49.5507 48.0223 46.9893 50.4286 45.6444 51.4033C41.6211 54.339 36.8894 56.1953 31.9146 56.7898C30.4486 56.9718 26.4586 56.9631 25.0407 56.7898H25.0389ZM32.8052 54.4483C39.7491 53.3049 45.9462 49.4984 50.0334 43.8661C54.8482 37.2213 56.1378 28.3068 53.4196 20.5333C52.7801 18.7098 51.193 15.6666 50.0334 14.0618C48.7438 12.2663 45.5518 9.12159 43.7154 7.85459C41.9341 6.61559 38.9006 5.11059 36.8308 4.44559C33.0946 3.22608 29.1273 2.84692 25.2219 3.3361C21.3165 3.82529 17.5729 5.17033 14.2677 7.27184C11.158 9.27878 8.49972 11.8904 6.45695 14.9456C4.31846 18.1911 2.94967 21.8672 2.45174 25.7023C1.95381 29.5374 2.33947 33.4334 3.58023 37.1023C4.26601 39.1341 5.79788 42.1248 7.0501 43.8748C8.34863 45.6703 11.5406 48.8151 13.3682 50.0821C15.0105 51.2126 18.0992 52.7701 19.9553 53.4088C24.0865 54.7878 28.5 55.1448 32.8052 54.4483V54.4483ZM22.9335 45.0596C21.6018 44.8623 20.3241 44.4034 19.1769 43.7103C18.1473 43.0628 10.3721 35.5798 9.99273 34.8781C9.55632 34.0766 10.3169 32.6171 11.4035 32.1708L11.9129 31.9608L10.3454 30.3928C9.48329 29.5266 8.6657 28.6061 8.53567 28.3506C8.22929 27.7678 8.22039 26.5183 8.50717 25.9618C8.62829 25.7343 8.91507 25.3878 9.13773 25.1953C9.51892 24.8856 9.55454 24.7753 9.51892 23.9913C9.4726 23.2983 9.53673 23.0253 9.8431 22.5056C10.2884 21.7583 11.2075 21.2561 12.1071 21.2473C12.6076 21.2473 12.7376 21.1843 12.9514 20.8186C13.5089 19.8613 15.1031 19.5148 16.3197 20.0993L16.9788 20.4091L17.303 20.0993C17.7483 19.6986 18.6389 19.3433 19.2232 19.3433C20.3917 19.3433 22.0429 20.6646 22.0429 21.5938C22.0429 22.7051 21.0133 22.8976 19.9927 21.9771C19.3158 21.3576 18.972 21.2928 18.6941 21.7303C18.5552 21.9403 18.8883 22.3323 20.8833 24.3098C22.8783 26.2786 23.2399 26.6986 23.2399 27.0713C23.2241 27.3571 23.1003 27.6267 22.8927 27.8274C22.6851 28.0281 22.4087 28.1454 22.1177 28.1563C21.7561 28.1563 21.1629 27.6453 18.4252 24.9661C15.6322 22.2308 15.1227 21.7933 14.9001 21.9316C14.2962 22.3061 14.5011 22.5791 17.7661 25.7956C19.5384 27.5456 20.9955 29.0943 20.9955 29.2413C20.9955 29.5423 20.7176 30.0988 20.4861 30.2441C20.2961 30.326 20.0895 30.3638 19.8822 30.3543C19.501 30.3631 18.9168 29.8433 15.8103 26.8001C12.6931 23.7551 12.1356 23.2633 11.9129 23.3998C11.3002 23.7831 11.505 24.0473 15.0586 27.5561C16.9984 29.4618 18.6211 31.1663 18.6674 31.3483C18.7689 31.6773 18.5463 32.2513 18.2506 32.4508C18.0544 32.5328 17.842 32.5705 17.6289 32.5611C17.2478 32.5611 16.7668 32.1516 14.1965 29.6263C11.7188 27.1921 11.1434 26.6916 10.8281 26.7196C9.93751 26.8193 10.2528 27.2113 14.8538 31.7421C18.8438 35.6708 19.3532 36.2273 19.3532 36.6368C19.3572 36.7872 19.3228 36.9361 19.2531 37.07C19.1834 37.2039 19.0806 37.3185 18.9542 37.4033C18.2399 37.9598 17.962 37.8321 16.1612 36.1188C15.2421 35.2526 14.2962 34.4143 14.0451 34.2586C13.5909 33.9856 12.4402 33.8666 12.2264 34.0853C12.1516 34.1483 13.8491 35.9088 15.9938 37.9948C19.5652 41.4668 19.9731 41.8238 21.0222 42.3156C21.9887 42.7884 23.0532 43.036 24.1329 43.039C25.2126 43.0421 26.2785 42.8005 27.2477 42.3331C30.2438 40.9296 31.9057 37.5206 31.0881 34.4301C30.6802 32.8901 30.1689 32.1516 28.1098 30.0638C25.7354 27.6751 25.1868 27.0188 24.6025 25.8708C23.9524 24.5863 23.6745 23.3368 23.6745 21.7776C23.6745 20.0906 23.8509 19.3258 24.6114 17.7491C25.3346 16.2458 26.8469 14.6691 28.3414 13.8571C31.2733 12.2523 35.1333 12.3888 37.9334 14.1861C38.4909 14.5413 40.5038 16.4016 43.0082 18.8708C46.7292 22.5353 47.1549 23.0096 47.1549 23.4278C47.1549 24.4218 46.3284 25.5243 45.4111 25.7518C45.0673 25.8428 45.1332 25.9338 46.6918 27.4931C47.6003 28.3961 48.4446 29.3708 48.5746 29.6718C49.011 30.7026 48.8151 31.7036 48.0171 32.5243C47.6092 32.9443 47.5539 33.0896 47.5433 33.9278C47.5344 34.6663 47.4506 34.9761 47.1532 35.3961C46.9182 35.7378 46.6036 36.0194 46.2356 36.2175C45.8675 36.4157 45.4566 36.5246 45.037 36.5353C44.4617 36.5353 44.3513 36.5896 44.0627 37.0183C43.4125 38.0036 41.7239 38.3483 40.6302 37.7113L40.0834 37.3928L39.6933 37.7673C38.8312 38.5793 37.4382 38.6878 36.3819 38.0228C35.5287 37.4943 34.8982 36.7558 34.8982 36.2903C34.8982 35.8808 35.502 35.2053 35.8725 35.2053C36.2252 35.2053 36.699 35.4783 37.2369 35.9718C37.7749 36.4723 38.2398 36.4723 38.3128 35.9631C38.3502 35.6901 37.9049 35.1703 36.1041 33.3923C34.2106 31.5146 33.849 31.0858 33.849 30.7218C33.8448 30.5186 33.883 30.3167 33.9612 30.1286C34.1661 29.8276 34.7414 29.6176 35.0923 29.7086C35.2776 29.7541 36.8451 31.1768 38.5622 32.8621C40.2882 34.5578 41.8005 35.9421 41.9394 35.9421C42.3206 35.9421 42.57 35.5676 42.3937 35.2491C42.3099 35.1038 40.8529 33.6356 39.1643 31.9766C36.5209 29.3883 36.0934 28.9053 36.0934 28.5221C36.0847 28.3157 36.1231 28.1101 36.2056 27.9201C36.3641 27.6926 36.9199 27.4196 37.2352 27.4196C37.3741 27.4196 39.1179 29.0138 41.1129 30.9651C44.7681 34.5386 45.037 34.7381 45.4182 34.1466C45.5572 33.9278 45.0566 33.3713 41.9573 30.3176C38.7564 27.1641 38.3306 26.6898 38.3306 26.2803C38.3306 25.9986 38.4607 25.7063 38.6655 25.5243C39.3424 24.8961 39.5472 25.0238 42.8408 28.2403C45.9579 31.2941 46.2358 31.4936 46.617 30.9108C46.7559 30.6921 46.1254 30.0183 42.2565 26.2068C38.0439 22.0506 37.7393 21.7128 37.7393 21.2298C37.7393 20.5001 38.1668 20.1536 38.9915 20.2096C39.1393 20.2183 40.0299 20.9568 40.9491 21.8406C41.8771 22.7243 42.8782 23.5538 43.1756 23.6816C43.7599 23.9178 44.4368 23.9546 44.7253 23.7726C45.0032 23.5993 37.3029 16.1531 36.3018 15.6333C35.4435 15.1782 34.4994 14.9005 33.5277 14.8172C32.556 14.7339 31.5773 14.8469 30.6517 15.1492C29.7262 15.4515 28.8734 15.9367 28.1458 16.5749C27.4182 17.2132 26.8313 17.9909 26.4212 18.8603C25.9385 19.8718 25.8744 20.1728 25.8084 21.4766C25.7532 22.7068 25.7995 23.0901 26.0685 23.8741C26.5512 25.2688 26.968 25.8428 29.1305 28.0128C31.4693 30.3648 31.9146 30.9021 32.5077 32.1603C34.1785 35.6603 33.4732 39.7081 30.7176 42.4048C28.621 44.4733 25.7639 45.4393 22.9335 45.0578V45.0596Z" fill="black"/>
</svg>
