<svg width="71" height="71" viewBox="0 0 71 71" fill="none" xmlns="http://www.w3.org/2000/svg">
<path d="M65.0833 0H5.91667C4.34747 0 2.84254 0.623361 1.73295 1.73295C0.623361 2.84254 0 4.34747 0 5.91667V65.0833C0 66.6525 0.623361 68.1575 1.73295 69.267C2.84254 70.3766 4.34747 71 5.91667 71H65.0833C66.6525 71 68.1575 70.3766 69.267 69.267C70.3766 68.1575 71 66.6525 71 65.0833V5.91667C71 4.34747 70.3766 2.84254 69.267 1.73295C68.1575 0.623361 66.6525 0 65.0833 0ZM28.1042 44.375C28.8888 44.375 29.6412 44.0633 30.196 43.5085C30.7508 42.9537 31.0625 42.2013 31.0625 41.4167V5.91667H39.9375V41.4167C39.9375 42.2013 40.2492 42.9537 40.804 43.5085C41.3588 44.0633 42.1112 44.375 42.8958 44.375H45.8542V65.0833H25.1458V44.375H28.1042ZM5.91667 5.91667H13.3125V41.4167C13.3125 42.2013 13.6242 42.9537 14.179 43.5085C14.7338 44.0633 15.4862 44.375 16.2708 44.375H19.2292V65.0833H5.91667V5.91667ZM65.0833 65.0833H51.7708V44.375H54.7292C55.5138 44.375 56.2662 44.0633 56.821 43.5085C57.3758 42.9537 57.6875 42.2013 57.6875 41.4167V5.91667H65.0833V65.0833Z" fill="white"/>
</svg>
