<svg width="98" height="97" viewBox="0 0 98 97" fill="none" xmlns="http://www.w3.org/2000/svg">
<path d="M25.216 0.216309C28.5807 13.4032 34.0352 21.0604 37.1699 24.5713L37.4207 24.843L37.7551 25.0311C41.1824 26.703 43.3559 30.193 43.3559 34.0174C43.3559 39.5764 38.8836 44.0487 33.3037 44.0487C27.7447 44.0487 23.2725 39.5764 23.2725 34.0174C23.2725 32.2202 23.7531 30.4856 24.6518 28.9182L25.2578 27.8733L24.5891 26.8493C20.8065 21.1858 20.4721 16.1075 21.5379 10.8118C22.2275 7.34268 23.6695 3.78994 25.216 0.216309ZM50.5031 24.1743C52.0914 24.1952 53.617 24.446 54.8709 25.0102C55.7068 26.703 56.1666 28.9182 57.0861 31.0917C57.6086 32.262 58.3191 33.4741 59.5104 34.3518C60.6389 35.1878 62.1227 35.6266 63.7736 35.6057C75.5812 37.7583 83.0629 41.1229 88.0785 45.0936C93.1359 49.0434 95.8109 53.6411 97.8799 58.6358V58.6567C98.2352 59.4717 98.1516 59.9942 97.859 60.5794C97.5455 61.2063 96.8977 61.8333 96.1035 62.2721C95.2885 62.711 94.3272 62.92 93.5748 62.8991C92.8434 62.8573 92.3627 62.6274 92.0283 62.2512C89.4787 59.1374 86.3857 54.8741 82.5195 51.4467C78.6324 48.0194 73.7631 45.3653 67.9951 46.034C63.5646 46.5356 61.0777 44.6965 57.4623 42.5231C54.641 40.8303 51.1719 39.054 46.407 38.845C46.9713 37.3403 47.2848 35.7102 47.2848 34.0174C47.2848 30.611 46.0309 27.4135 43.8992 24.9266C45.0695 24.7176 46.3443 24.446 47.6818 24.2997C48.3924 24.237 49.1029 24.1743 49.8135 24.1743H50.5031ZM0.888153 27.7688C6.63522 29.6706 12.7167 31.3633 19.7197 30.8618C19.4899 31.8858 19.3436 32.9516 19.3436 34.0174C19.3436 37.2358 20.4721 40.2243 22.3111 42.6067C16.2903 42.5649 12.1315 40.4333 8.49518 37.1313C5.71569 34.5817 3.29147 31.2379 0.888153 27.7688ZM33.3037 28.563C30.3152 28.563 27.8492 31.029 27.8492 34.0174C27.8492 37.0059 30.3152 39.4719 33.3037 39.4719C36.2922 39.4719 38.7582 37.0059 38.7582 34.0174C38.7582 31.029 36.2922 28.563 33.3037 28.563ZM33.3037 32.4919C34.1814 32.4919 34.8502 33.1397 34.8502 34.0174C34.8502 34.8743 34.1814 35.543 33.3037 35.543C32.4469 35.543 31.7781 34.8743 31.7781 34.0174C31.7781 33.1397 32.4469 32.4919 33.3037 32.4919ZM38.6955 46.9118C40.0121 57.9044 44.3172 65.1561 49.3955 70.6942C54.9963 76.7965 61.3285 81.0807 65.8426 86.8487C66.0934 87.5383 66.2606 88.9594 66.0934 90.4641C65.8844 92.0733 65.3619 93.8079 64.6514 95.02C63.9408 96.1903 63.2094 96.7128 62.5406 96.7755C61.9137 96.8382 60.7434 96.5038 58.9879 94.5811C55.2262 87.6219 47.7654 76.8592 37.9014 72.1362C33.9934 70.2553 32.1334 67.6012 31.1512 64.4038C30.1898 61.2272 30.2107 57.4655 30.5451 53.9337C30.7959 51.0288 30.2316 48.9598 29.5629 47.4551C30.7541 47.8104 32.008 47.9776 33.3037 47.9776C35.2055 47.9776 37.0445 47.5805 38.6955 46.9118Z" fill="#FDF8F8"/>
</svg>
